# xmcd
#
# Track frame offsets:
#	150
#	6940
#	40610
#	63035
#	86415
#	117020
#	154155
#	184677
#	225005
#	248472
#
# Disc length: 3787 seconds
#
# Revision: 1
# Processed by: cddbd v1.5.1PL0 Copyright (c) Steve Scherf et al.
# Submitted via: audiograbber 1.83.01
#
DISCID=5e0ec90a
DTITLE=Johnny Winter - Woodstock Revival
DYEAR=1979
DGENRE=Blues
TTITLE0=Introduction
TTITLE1=Hideaway
TTITLE2=Messin' With The Kid
TTITLE3=Johnny B. Goode
TTITLE4=Come On In My Kitchen
TTITLE5=Rollin' And Tumblin'
TTITLE6=Help Me
TTITLE7=Stranger
TTITLE8=Jumping Jack Flash
TTITLE9=Bony Moronie
EXTD=
EXTT0=
EXTT1=
EXTT2=
EXTT3=
EXTT4=
EXTT5=
EXTT6=
EXTT7=
EXTT8=
EXTT9=
PLAYORDER=
